<?xml version="1.0" encoding="utf-8"?>
<!-- Generator: Adobe Illustrator 16.0.0, SVG Export Plug-In . SVG Version: 6.00 Build 0)  -->
<!DOCTYPE svg PUBLIC "-//W3C//DTD SVG 1.1//EN" "http://www.w3.org/Graphics/SVG/1.1/DTD/svg11.dtd">
<svg version="1.1" id="Capa_1" xmlns="http://www.w3.org/2000/svg" xmlns:xlink="http://www.w3.org/1999/xlink" x="0px" y="0px"
	 width="566.93px" height="141.73px" viewBox="0 0 566.93 141.73" enable-background="new 0 0 566.93 141.73" xml:space="preserve">
<g>
	<g>
		<path fill="#068C0C" d="M351.727,126.28h-14.385l-3.492-33.174l3.865,5.796l0.957,4.795c0.463,2.311,1.915,4.277,3.988,5.402
			c1.174,0.636,2.464,0.957,3.761,0.957c0.993,0,1.99-0.188,2.94-0.568c2.047-0.818,3.67-2.469,4.455-4.53
			c0.782-2.061,0.666-4.371-0.318-6.346l-2.02-4.039c-0.007-0.017-0.021-0.025-0.03-0.04c-0.005-0.012-0.005-0.023-0.009-0.035
			l-14.148-25.939c-0.262-0.48-0.688-0.855-1.193-1.061l-6.391-2.557c4.796-3.896,7.871-9.833,7.871-16.478
			c0-3.554-0.936-7.054-2.658-10.185l-1.217-12.173c3.797-1.608,6.232-4.766,6.232-8.298c0-5.077-5.039-9.229-11.325-9.426
			c-2.507-4.351-7.154-7.081-12.255-7.081s-9.748,2.73-12.255,7.081c-6.286,0.196-11.326,4.349-11.326,9.426
			c0,3.532,2.437,6.689,6.232,8.298l-1.217,12.173c-1.722,3.131-2.657,6.631-2.657,10.185c0,6.645,3.074,12.582,7.873,16.476
			l-6.391,2.556c-0.377,0.151-0.709,0.399-0.964,0.718l-7.958,9.948l-9.617-7.692l-2.568-4.279c-0.437-0.729-0.993-1.347-1.594-1.91
			v-6.384c0-3.07-1.979-5.664-4.716-6.64v-9.866h2.358c3.9,0,7.074-3.175,7.074-7.074V20.167c0-3.9-3.174-7.074-7.074-7.074h-9.433
			c-3.9,0-7.074,3.174-7.074,7.074v14.148c0,3.899,3.174,7.074,7.074,7.074h2.358v9.866c-2.738,0.976-4.716,3.569-4.716,6.64v9.433
			c0,0.002,0,0.007,0,0.01c-0.589,1.402-0.854,2.934-0.663,4.499c0.337,2.729,1.882,5.105,4.237,6.52l4.462,2.677l15.676,13.717
			c2.634,2.302,6.494,2.352,9.187,0.108l6.591-5.494l-3.888,36.916h-41.225l2.766-5.532c4.414-1.705,7.567-5.966,7.567-10.975v-5.15
			c2.738-0.976,4.716-3.569,4.716-6.64c0-3.9-3.174-7.074-7.074-7.074h-42.445c-3.9,0-7.075,3.174-7.075,7.074
			c0,3.07,1.979,5.664,4.716,6.64v5.15c0,5.009,3.153,9.27,7.567,10.975l2.766,5.532h-12.691c-1.302,0-2.358,1.057-2.358,2.357
			v9.433c0,1.302,1.057,2.358,2.358,2.358h136.769c1.302,0,2.357-1.057,2.357-2.358v-9.433
			C354.084,127.337,353.028,126.28,351.727,126.28z M264.478,36.673h-2.358c-1.299,0-2.358-1.059-2.358-2.357V20.167
			c0-1.3,1.059-2.358,2.358-2.358h2.358V36.673z M349.279,100.719c0.402,0.807,0.449,1.717,0.129,2.561
			c-0.32,0.842-0.959,1.493-1.797,1.827c-0.879,0.352-1.867,0.295-2.702-0.157c-0.835-0.453-1.425-1.248-1.61-2.179l-0.608-3.045
			l5.417-1.354L349.279,100.719z M333.558,71.56l12.28,22.516l-4.861,1.214l-8.291-12.437l-3.424-13.012L333.558,71.56z
			 M328.381,86.192l4.222,40.088H300.11l4.219-40.088H328.381z M305.268,81.476l3.477-13.217c0.094,0.035,0.19,0.062,0.285,0.094
			c0.474,0.175,0.949,0.343,1.438,0.483c0.187,0.055,0.375,0.097,0.562,0.145c0.45,0.117,0.901,0.23,1.36,0.318
			c0.231,0.045,0.465,0.07,0.695,0.105c0.428,0.066,0.852,0.137,1.285,0.18c0.305,0.028,0.611,0.03,0.916,0.047
			c0.357,0.019,0.709,0.055,1.07,0.055s0.712-0.036,1.07-0.055c0.307-0.017,0.611-0.019,0.915-0.047
			c0.435-0.04,0.858-0.111,1.285-0.18c0.231-0.035,0.464-0.061,0.696-0.105c0.459-0.088,0.91-0.203,1.359-0.318
			c0.188-0.05,0.375-0.09,0.563-0.145c0.487-0.141,0.967-0.307,1.438-0.483c0.095-0.035,0.191-0.059,0.285-0.094l3.479,13.217
			H305.268z M297.49,17.808c0-2.557,3.24-4.716,7.074-4.716c0.137,0,0.268,0.016,0.398,0.03l0.381,0.035
			c0.992,0.06,1.945-0.495,2.346-1.422c1.49-3.474,4.893-5.718,8.666-5.718s7.176,2.244,8.668,5.718
			c0.398,0.927,1.365,1.5,2.347,1.422l0.38-0.035c0.129-0.015,0.259-0.03,0.396-0.03c3.835,0,7.074,2.159,7.074,4.716
			c0,1.884-1.905,3.686-4.634,4.384c-1.129,0.287-1.879,1.358-1.764,2.519l1.434,14.32h-27.801l1.431-14.318
			c0.116-1.16-0.634-2.23-1.764-2.519C299.396,21.494,297.49,19.692,297.49,17.808z M299.849,48.464c0-1.6,0.238-3.188,0.696-4.717
			h31.619c0.459,1.528,0.697,3.117,0.697,4.717c0,6.546-3.841,12.198-9.377,14.865c-0.535,0.257-1.083,0.485-1.637,0.682
			c-0.026,0.009-0.053,0.019-0.078,0.028c-3.514,1.229-7.319,1.229-10.833,0c-0.026-0.01-0.052-0.02-0.078-0.028
			c-0.554-0.196-1.099-0.425-1.636-0.682C303.689,60.662,299.849,55.01,299.849,48.464z M269.194,17.808h2.358
			c1.299,0,2.358,1.059,2.358,2.358v14.148c0,1.299-1.059,2.357-2.358,2.357h-2.358V17.808z M266.835,55.538
			c1.299,0,2.358,1.059,2.358,2.357v4.099c-0.014-0.002-0.031-0.002-0.045-0.005c-0.057-0.007-0.106-0.033-0.163-0.04
			c-0.13-0.017-0.257,0.007-0.384-0.005c-0.411-0.033-0.816-0.037-1.227-0.014c-0.205,0.012-0.408,0.012-0.608,0.037
			c-0.485,0.062-0.959,0.175-1.429,0.316c-0.201,0.062-0.394,0.125-0.59,0.198c-0.089,0.033-0.181,0.054-0.269,0.09v-4.677h-0.002
			C264.478,56.596,265.536,55.538,266.835,55.538z M265.768,74.312c-1.106-0.662-1.83-1.775-1.986-3.054
			c-0.104-0.832,0.069-1.646,0.437-2.369c0.009-0.02,0.026-0.031,0.035-0.05c0.102-0.193,0.203-0.358,0.307-0.512
			c0.127-0.177,0.252-0.356,0.408-0.512c0.33-0.333,0.714-0.585,1.118-0.78c0.033-0.017,0.066-0.038,0.099-0.055
			c0.403-0.182,0.832-0.295,1.271-0.34c0.033-0.002,0.063-0.007,0.097-0.009c0.427-0.036,0.858,0.002,1.283,0.099
			c0.044,0.01,0.089,0.019,0.132,0.03c0.441,0.118,0.87,0.3,1.264,0.568c0.012,0.008,0.026,0.012,0.038,0.02
			c0.474,0.33,0.887,0.752,1.195,1.266l1.837,3.063l-4.471,4.471L265.768,74.312z M289.643,91.234
			c-0.896,0.745-2.186,0.733-3.063-0.035l-13.939-12.196l3.799-3.799l10.142,8.114c1.014,0.813,2.5,0.65,3.313-0.368l9.043-11.305
			l4.507-1.802l-3.332,12.666L289.643,91.234z M219.674,100.341c-1.299,0-2.358-1.059-2.358-2.357c0-1.3,1.059-2.358,2.358-2.358
			h42.445c1.299,0,2.358,1.059,2.358,2.358c0,1.299-1.059,2.357-2.358,2.357H219.674z M222.032,109.773v-4.716h37.729v4.716
			c0,3.9-3.174,7.074-7.074,7.074h-23.581C225.206,116.847,222.032,113.674,222.032,109.773z M251.23,121.563l-2.358,4.717h-5.617
			v-4.717H251.23z M238.539,121.563v4.717h-5.617l-2.358-4.717H238.539z M349.369,135.713H217.316v-4.717h14.148h18.865h47.161
			h37.729h14.149V135.713z"/>
	</g>
</g>
<g>
	<g>
		<path fill="#068C0C" d="M323.43,95.625h-14.148c-1.302,0-2.358,1.057-2.358,2.358v7.074c0,5.202,4.23,9.432,9.433,9.432
			c5.201,0,9.432-4.229,9.432-9.432v-7.074C325.787,96.681,324.731,95.625,323.43,95.625z M321.071,105.057
			c0,2.601-2.115,4.716-4.716,4.716c-2.602,0-4.717-2.115-4.717-4.716v-4.717h9.433V105.057z"/>
	</g>
</g>
<g>
	<g>
		<rect x="238.539" y="72.044" fill="#068C0C" width="4.716" height="11.791"/>
	</g>
</g>
<g>
	<g>
		<rect x="250.329" y="76.76" fill="#068C0C" width="4.716" height="9.432"/>
	</g>
</g>
<g>
	<g>
		<rect x="226.749" y="76.76" fill="#068C0C" width="4.716" height="9.432"/>
	</g>
</g>
<g>
	<g>
		<rect x="238.539" y="62.612" fill="#068C0C" width="4.716" height="4.716"/>
	</g>
</g>
<g>
	<g>
		<rect x="226.749" y="67.328" fill="#068C0C" width="4.716" height="4.716"/>
	</g>
</g>
<g>
	<g>
		<rect x="250.329" y="67.328" fill="#068C0C" width="4.716" height="4.716"/>
	</g>
</g>
</svg>
