<?xml version="1.0" encoding="utf-8"?>
<!-- Generator: Adobe Illustrator 16.0.0, SVG Export Plug-In . SVG Version: 6.00 Build 0)  -->
<!DOCTYPE svg PUBLIC "-//W3C//DTD SVG 1.1//EN" "http://www.w3.org/Graphics/SVG/1.1/DTD/svg11.dtd">
<svg version="1.1" id="Capa_1" xmlns="http://www.w3.org/2000/svg" xmlns:xlink="http://www.w3.org/1999/xlink" x="0px" y="0px"
	 width="566.93px" height="141.73px" viewBox="0 0 566.93 141.73" enable-background="new 0 0 566.93 141.73" xml:space="preserve">
<g>
	<g>
		<path fill="#068C0C" d="M245.67,93.305c-7.816,0-14.173,6.356-14.173,14.173s6.357,14.174,14.173,14.174
			s14.173-6.357,14.173-14.174S253.486,93.305,245.67,93.305z M245.67,116.927c-5.211,0-9.449-4.238-9.449-9.449
			s4.238-9.448,9.449-9.448c5.21,0,9.448,4.238,9.448,9.448C255.119,112.689,250.881,116.927,245.67,116.927z"/>
	</g>
</g>
<g>
	<g>
		<path fill="#068C0C" d="M325.984,93.305c-7.816,0-14.174,6.356-14.174,14.173s6.357,14.174,14.174,14.174
			s14.172-6.357,14.172-14.174S333.801,93.305,325.984,93.305z M325.984,116.927c-5.211,0-9.449-4.238-9.449-9.449
			s4.238-9.448,9.449-9.448s9.448,4.238,9.448,9.448C335.433,112.689,331.195,116.927,325.984,116.927z"/>
	</g>
</g>
<g>
	<g>
		<path fill="#068C0C" d="M353.954,80.217l-21.259-33.07c-0.436-0.676-1.184-1.084-1.987-1.084h-25.983
			c-1.307,0-2.362,1.059-2.362,2.362v59.054c0,1.307,1.056,2.362,2.362,2.362h9.448v-4.725h-7.087V50.787h22.332l20.188,31.402
			v22.928h-11.811v4.724h14.172c1.307,0,2.363-1.056,2.363-2.362V81.495C354.33,81.044,354.2,80.597,353.954,80.217z"/>
	</g>
</g>
<g>
	<g>
		<path fill="#068C0C" d="M316.535,76.77V60.235h18.897V55.51h-21.259c-1.307,0-2.363,1.059-2.363,2.362v21.26
			c0,1.306,1.057,2.362,2.363,2.362h35.432V76.77H316.535L316.535,76.77z"/>
	</g>
</g>
<g>
	<g>
		<path fill="#068C0C" d="M304.725,29.527h-89.763c-1.304,0-2.362,1.059-2.362,2.362v75.589c0,1.307,1.059,2.362,2.362,2.362h18.897
			v-4.725h-16.535V34.252h85.038v70.864h-44.881v4.725h47.244c1.307,0,2.361-1.056,2.361-2.362V31.889
			C307.086,30.586,306.031,29.527,304.725,29.527z"/>
	</g>
</g>
<g>
	<g>
		<rect x="214.962" y="95.668" fill="#068C0C" width="14.173" height="4.725"/>
	</g>
</g>
<g>
	<g>
		<rect x="262.206" y="95.668" fill="#068C0C" width="40.157" height="4.725"/>
	</g>
</g>
<g>
	<g>
		<rect x="342.52" y="95.668" fill="#068C0C" width="9.447" height="4.725"/>
	</g>
</g>
<g>
	<g>
		<rect x="222.048" y="38.975" fill="#068C0C" width="82.676" height="4.725"/>
	</g>
</g>
<g>
	<g>
		<rect x="243.308" y="105.116" fill="#068C0C" width="4.724" height="4.725"/>
	</g>
</g>
<g>
	<g>
		<rect x="323.621" y="105.116" fill="#068C0C" width="4.725" height="4.725"/>
	</g>
</g>
<g>
	<g>
		<rect x="222.048" y="20.078" fill="#068C0C" width="33.07" height="4.725"/>
	</g>
</g>
<g>
	<g>
		<rect x="212.6" y="20.078" fill="#068C0C" width="4.725" height="4.725"/>
	</g>
</g>
</svg>
