<?xml version="1.0" encoding="utf-8"?>
<!-- Generator: Adobe Illustrator 16.0.0, SVG Export Plug-In . SVG Version: 6.00 Build 0)  -->
<!DOCTYPE svg PUBLIC "-//W3C//DTD SVG 1.1//EN" "http://www.w3.org/Graphics/SVG/1.1/DTD/svg11.dtd">
<svg version="1.1" id="Capa_1" xmlns="http://www.w3.org/2000/svg" xmlns:xlink="http://www.w3.org/1999/xlink" x="0px" y="0px"
	 width="566.93px" height="141.73px" viewBox="0 0 566.93 141.73" enable-background="new 0 0 566.93 141.73" xml:space="preserve">
<g>
	<g>
		<path fill="#068C0C" d="M342.23,0h-103.97c-6.231,0-11.301,5.07-11.301,11.301v35.228l-12.899,12.899
			c-0.423,0.423-0.662,0.999-0.662,1.598v79.106h4.521V61.961l9.041-9.04v5.845c0,1.247,1.013,2.26,2.26,2.26h26.835
			c-1.006,3.895-4.55,6.78-8.754,6.78h-9.041c-1.248,0-2.26,1.013-2.26,2.261c0,7.604-5.958,13.561-13.562,13.561v4.521
			c1.569,0,3.079-0.205,4.521-0.564v32.207c0,6.231,5.07,11.302,11.301,11.302h6.781v9.04h4.521v-9.04h36.163v4.521
			c0,0.599,0.238,1.175,0.662,1.598l4.521,4.521l3.195-3.196l-3.857-3.858v-13.949l4.52-4.525v10.37h4.521v-62.16
			c0-1.867,1.519-3.386,3.396-3.386c1.866,0,3.385,1.519,3.385,3.386v31.643v19.217h4.521V96.053c0-1.866,1.518-3.386,3.395-3.386
			c1.867,0,3.385,1.52,3.385,3.386v19.217h4.521V96.053c0-1.866,1.519-3.386,3.395-3.386c1.867,0,3.386,1.52,3.386,3.386v19.217
			h2.26h2.261l0.009-19.221c0-1.865,1.519-3.384,3.386-3.384s3.386,1.519,3.386,3.386v44.08h4.521v-9.269
			c5.15-1.051,9.041-5.616,9.041-11.073V11.301C353.531,5.07,348.461,0,342.23,0z M349.01,119.79c0,2.943-1.896,5.43-4.52,6.365
			V96.053c0-4.359-3.547-7.906-7.906-7.906c-2.215,0-4.215,0.923-5.65,2.396c-1.438-1.474-3.439-2.396-5.66-2.396
			c-2.213,0-4.211,0.92-5.646,2.39c-1.438-1.47-3.438-2.39-5.655-2.39c-1.216,0-2.355,0.299-3.386,0.791V64.411
			c0-4.359-3.546-7.906-7.915-7.906c-4.359,0-7.906,3.547-7.906,7.906v45.394l-8.381,8.388c-0.422,0.425-0.66,0.999-0.66,1.598
			v6.781h-47.464c-3.738,0-6.78-3.042-6.78-6.781V85.781c4.828-2.737,8.209-7.621,8.907-13.455h6.914
			c7.479,0,13.561-6.082,13.561-13.561c0-1.248-1.013-2.261-2.26-2.261H231.48v-9.041V11.301c0-3.738,3.042-6.78,6.78-6.78h103.97
			c3.738,0,6.779,3.042,6.779,6.78V119.79L349.01,119.79z"/>
	</g>
</g>
<g>
	<g>
		<path fill="#068C0C" d="M276.684,9.041h-33.903c-1.248,0-2.26,1.013-2.26,2.26v11.302c0,1.247,1.013,2.26,2.26,2.26h33.903
			c1.248,0,2.26-1.013,2.26-2.26V11.301C278.944,10.053,277.932,9.041,276.684,9.041z M274.424,20.342h-29.382v-6.78h29.382V20.342z
			"/>
	</g>
</g>
<g>
	<g>
		<path fill="#068C0C" d="M337.709,9.041h-33.902c-1.248,0-2.26,1.013-2.26,2.26v11.302c0,1.247,1.012,2.26,2.26,2.26h33.902
			c1.248,0,2.261-1.013,2.261-2.26V11.301C339.97,10.053,338.957,9.041,337.709,9.041z M335.449,20.342h-29.383v-6.78h29.383V20.342
			z"/>
	</g>
</g>
<g>
	<g>
		<path fill="#068C0C" d="M276.684,76.846h-33.903c-1.248,0-2.26,1.013-2.26,2.261v11.301c0,1.247,1.013,2.26,2.26,2.26h33.903
			c1.248,0,2.26-1.013,2.26-2.26V79.107C278.944,77.859,277.932,76.846,276.684,76.846z M274.424,88.147h-29.382v-6.78h29.382
			V88.147z"/>
	</g>
</g>
<g>
	<g>
		<rect x="287.985" y="9.041" fill="#068C0C" width="4.521" height="42.943"/>
	</g>
</g>
<g>
	<g>
		<rect x="240.521" y="29.383" fill="#068C0C" width="24.862" height="4.521"/>
	</g>
</g>
<g>
	<g>
		<rect x="272.164" y="29.383" fill="#068C0C" width="6.78" height="4.521"/>
	</g>
</g>
<g>
	<g>
		<rect x="240.521" y="38.424" fill="#068C0C" width="24.862" height="4.521"/>
	</g>
</g>
<g>
	<g>
		<rect x="272.164" y="38.424" fill="#068C0C" width="6.78" height="4.521"/>
	</g>
</g>
<g>
	<g>
		<rect x="240.521" y="47.464" fill="#068C0C" width="24.862" height="4.521"/>
	</g>
</g>
<g>
	<g>
		<rect x="272.164" y="47.464" fill="#068C0C" width="6.78" height="4.521"/>
	</g>
</g>
<g>
	<g>
		<rect x="272.164" y="56.505" fill="#068C0C" width="6.78" height="4.521"/>
	</g>
</g>
<g>
	<g>
		<rect x="272.164" y="65.546" fill="#068C0C" width="6.78" height="4.521"/>
	</g>
</g>
<g>
	<g>
		<rect x="240.521" y="97.188" fill="#068C0C" width="24.862" height="4.521"/>
	</g>
</g>
<g>
	<g>
		<rect x="272.164" y="97.188" fill="#068C0C" width="6.78" height="4.521"/>
	</g>
</g>
<g>
	<g>
		<rect x="240.521" y="106.229" fill="#068C0C" width="24.862" height="4.521"/>
	</g>
</g>
<g>
	<g>
		<rect x="272.164" y="106.229" fill="#068C0C" width="6.78" height="4.521"/>
	</g>
</g>
<g>
	<g>
		<rect x="240.521" y="115.27" fill="#068C0C" width="24.862" height="4.52"/>
	</g>
</g>
<g>
	<g>
		<rect x="272.164" y="115.27" fill="#068C0C" width="6.78" height="4.52"/>
	</g>
</g>
<g>
	<g>
		<rect x="301.547" y="29.383" fill="#068C0C" width="24.861" height="4.521"/>
	</g>
</g>
<g>
	<g>
		<rect x="333.189" y="29.383" fill="#068C0C" width="6.78" height="4.521"/>
	</g>
</g>
<g>
	<g>
		<rect x="301.547" y="38.424" fill="#068C0C" width="24.861" height="4.521"/>
	</g>
</g>
<g>
	<g>
		<rect x="333.189" y="38.424" fill="#068C0C" width="6.78" height="4.521"/>
	</g>
</g>
<g>
	<g>
		<rect x="301.547" y="47.464" fill="#068C0C" width="24.861" height="4.521"/>
	</g>
</g>
<g>
	<g>
		<rect x="333.189" y="47.464" fill="#068C0C" width="6.78" height="4.521"/>
	</g>
</g>
<g>
	<g>
		<rect x="315.107" y="56.505" fill="#068C0C" width="11.301" height="4.521"/>
	</g>
</g>
<g>
	<g>
		<rect x="333.189" y="56.505" fill="#068C0C" width="6.78" height="4.521"/>
	</g>
</g>
<g>
	<g>
		<rect x="315.107" y="65.546" fill="#068C0C" width="11.301" height="4.521"/>
	</g>
</g>
<g>
	<g>
		<rect x="333.189" y="65.546" fill="#068C0C" width="6.78" height="4.521"/>
	</g>
</g>
<g>
	<g>
		<rect x="315.107" y="74.587" fill="#068C0C" width="11.301" height="4.521"/>
	</g>
</g>
<g>
	<g>
		<rect x="333.189" y="74.587" fill="#068C0C" width="6.78" height="4.521"/>
	</g>
</g>
</svg>
